# xmcd CD database file
#
# Track frame offsets:
#	150
#	40529
#	66710
#	81038
#	95172
#	113709
#	137365
#	166048
#	192457
#	209388
#	226916
#	244564
#	269394
#	296155
#
# Disc length: 4329 seconds
#
# Revision: 0
# Processed by: cddbd v1.5.1PL2 Copyright (c) Steve Scherf et al.
# Submitted via: CDex 1.51
#
DISCID=c510e70e
DTITLE=Various Artist - Baby's Got The Blues Disc 1
DYEAR=1900
DGENRE=Blues
TTITLE0=Conversation With Collins - Albert Collins
TTITLE1=Little Red Rooster - Big Mama Thornton
TTITLE2=I Wish You Would - Billy Boy Arnold
TTITLE3=Louisiana Glide - Blind Leroy Garnett
TTITLE4=300 Pounds Of Joy - Blyther Smith
TTITLE5=Onion Blues - Brendan Power
TTITLE6=First Time I Met The Blues - Buddy Guy
TTITLE7=Sail On - Carey Bell
TTITLE8=Chromatic Blues - Charlie Sayles
TTITLE9=Atlanta Rag - Cow Cow Davenport
TTITLE10=Boogie For The Doctor - Doctor Ross
TTITLE11=Cha Cha In Blues - Eddie C Campbell
TTITLE12=Every Night - HarmonicaMinds
TTITLE13=Pickin' - Hubert Sumlin
EXTD=
EXTT0=
EXTT1=
EXTT2=
EXTT3=
EXTT4=
EXTT5=
EXTT6=
EXTT7=
EXTT8=
EXTT9=
EXTT10=
EXTT11=
EXTT12=
EXTT13=
PLAYORDER=
